<?xml version="1.0" encoding="UTF-8" standalone="no"?>
<svg
   xmlns:dc="http://purl.org/dc/elements/1.1/"
   xmlns:cc="http://creativecommons.org/ns#"
   xmlns:rdf="http://www.w3.org/1999/02/22-rdf-syntax-ns#"
   xmlns:svg="http://www.w3.org/2000/svg"
   xmlns="http://www.w3.org/2000/svg"
   xmlns:sodipodi="http://sodipodi.sourceforge.net/DTD/sodipodi-0.dtd"
   xmlns:inkscape="http://www.inkscape.org/namespaces/inkscape"
   version="1.1"
   x="0px"
   y="0px"
   viewBox="0 0 538.32846 185.12718"
   xml:space="preserve"
   id="svg972"
   sodipodi:docname="spacebarkeepers_logotype_white_rgb_inkspace.svg"
   inkscape:version="1.0.2-2 (e86c870879, 2021-01-15)"
   width="538.32849"
   height="185.12718"><metadata
   id="metadata978"><rdf:RDF><cc:Work
       rdf:about=""><dc:format>image/svg+xml</dc:format><dc:type
         rdf:resource="http://purl.org/dc/dcmitype/StillImage" /><dc:title /></cc:Work></rdf:RDF></metadata><defs
   id="defs976" /><sodipodi:namedview
   pagecolor="#ffffff"
   bordercolor="#666666"
   borderopacity="1"
   objecttolerance="10"
   gridtolerance="10"
   guidetolerance="10"
   inkscape:pageopacity="0"
   inkscape:pageshadow="2"
   inkscape:window-width="3440"
   inkscape:window-height="1377"
   id="namedview974"
   showgrid="false"
   inkscape:zoom="3.4464737"
   inkscape:cx="210.78522"
   inkscape:cy="95.628641"
   inkscape:window-x="1912"
   inkscape:window-y="-8"
   inkscape:window-maximized="1"
   inkscape:current-layer="svg972"
   inkscape:document-rotation="0" />
<style
   type="text/css"
   id="style931">
	.st0{fill:none;stroke:#000000;stroke-miterlimit:10;}
	.st1{fill:none;stroke:#000000;stroke-width:0.25;stroke-miterlimit:10;}
	.st2{fill:#E30B5D;}
	.st3{fill:#FFFFFF;}
	.st4{fill:#4A4063;}
	.st5{fill:none;}
	.st6{font-family:'EncodeSansExpanded-Thin';}
	.st7{font-size:48px;}
</style>


<g
   id="Logo"
   style="fill:#ffffff;fill-opacity:1"
   transform="translate(-32.7415,-76.576359)">
	<g
   id="g957"
   inkscape:label="logo"
   style="fill:#ffffff;fill-opacity:1">
		<path
   class="st4"
   d="M 284.37,77.69 C 280,77 275.54,76.63 270.97,76.58 c -4.56,-0.04 -9.04,0.25 -13.43,0.85 0.36,7.02 6.15,12.67 13.3,12.74 7.13,0.07 13.03,-5.46 13.53,-12.48 z"
   id="path953"
   inkscape:label="12"
   style="fill:#ffffff;fill-opacity:1" /><path
   class="st4"
   d="m 355.56,204.68 c -1.86,-1.01 -3.97,-1.58 -6.23,-1.61 -7.4,-0.07 -13.49,5.9 -13.56,13.3 -0.04,4.7 2.35,8.87 6,11.32 5.64,-6.9 10.31,-14.65 13.79,-23.01 z"
   id="path951"
   inkscape:label="4"
   style="fill:#ffffff;fill-opacity:1" /><path
   class="st4"
   d="m 282.61,260.84 c -0.36,-7.02 -6.15,-12.67 -13.28,-12.73 -7.15,-0.07 -13.05,5.46 -13.53,12.49 4.37,0.69 8.85,1.05 13.4,1.1 4.55,0.04 9.02,-0.26 13.41,-0.86 z"
   id="path949"
   inkscape:label="6"
   style="fill:#ffffff;fill-opacity:1" /><path
   class="st4"
   d="m 203.48,215.11 c 0.07,-7.41 -5.9,-13.49 -13.3,-13.56 -2.24,-0.02 -4.37,0.51 -6.25,1.49 3.31,8.43 7.83,16.25 13.35,23.26 3.7,-2.38 6.16,-6.49 6.2,-11.19 z"
   id="path947"
   inkscape:label="8"
   style="fill:#ffffff;fill-opacity:1" /><path
   class="st4"
   d="m 356.23,135.26 c -3.3,-8.43 -7.83,-16.25 -13.36,-23.27 -3.69,2.36 -6.15,6.48 -6.2,11.18 -0.07,7.42 5.9,13.5 13.3,13.57 2.26,0.02 4.39,-0.51 6.26,-1.48 z"
   id="path945"
   inkscape:label="2"
   style="fill:#ffffff;fill-opacity:1" /><path
   class="st4"
   d="m 204.38,121.91 c 0.04,-4.7 -2.34,-8.87 -5.99,-11.31 -5.66,6.91 -10.33,14.65 -13.79,23.01 1.86,1.01 3.98,1.58 6.22,1.61 7.4,0.07 13.48,-5.9 13.56,-13.31 z"
   id="path943"
   inkscape:label="10"
   style="fill:#ffffff;fill-opacity:1" />
	</g>
	
	<text
   transform="translate(30.2935,187.5633)"
   class="st2 st6 st7"
   id="text961"
   style="font-style:normal;font-variant:normal;font-stretch:expanded;font-size:48px;font-family:'Encode Sans Expanded';-inkscape-font-specification:'Encode Sans Expanded, weight=250 Expanded';font-variant-ligatures:normal;font-variant-caps:normal;font-variant-numeric:normal;font-variant-east-asian:normal;fill:#ffffff;fill-opacity:1"
   inkscape:label="space">SPACE</text>
	
	<text
   transform="translate(207.6395,187.5633)"
   class="st4 st6 st7"
   id="text965"
   style="font-style:normal;font-variant:normal;font-stretch:expanded;font-size:48px;font-family:'Encode Sans Expanded';-inkscape-font-specification:'Encode Sans Expanded, weight=250 Expanded';font-variant-ligatures:normal;font-variant-caps:normal;font-variant-numeric:normal;font-variant-east-asian:normal;fill:#ffffff;fill-opacity:1"
   inkscape:label="bar">B A R</text>
	
	<text
   transform="translate(357.2304,187.5633)"
   class="st2 st6 st7"
   id="text969"
   style="font-style:normal;font-variant:normal;font-stretch:expanded;font-size:48px;font-family:'Encode Sans Expanded';-inkscape-font-specification:'Encode Sans Expanded, weight=250 Expanded';font-variant-ligatures:normal;font-variant-caps:normal;font-variant-numeric:normal;font-variant-east-asian:normal;fill:#ffffff;fill-opacity:1"
   inkscape:label="keepers">KEEPERS</text>
</g>
</svg>
