<?xml version="1.0" encoding="UTF-8" standalone="no"?>
<svg
   xmlns:dc="http://purl.org/dc/elements/1.1/"
   xmlns:cc="http://creativecommons.org/ns#"
   xmlns:rdf="http://www.w3.org/1999/02/22-rdf-syntax-ns#"
   xmlns:svg="http://www.w3.org/2000/svg"
   xmlns="http://www.w3.org/2000/svg"
   xmlns:xlink="http://www.w3.org/1999/xlink"
   xmlns:sodipodi="http://sodipodi.sourceforge.net/DTD/sodipodi-0.dtd"
   xmlns:inkscape="http://www.inkscape.org/namespaces/inkscape"
   version="1.1"
   x="0px"
   y="0px"
   viewBox="0 0 538.32846 185.11999"
   xml:space="preserve"
   id="svg43"
   sodipodi:docname="spacebarkeepers_logotype_color_rgb_baseline_inkscape.svg"
   inkscape:version="1.0.2-2 (e86c870879, 2021-01-15)"
   width="538.32849"
   height="185.12"><metadata
   id="metadata49"><rdf:RDF><cc:Work
       rdf:about=""><dc:format>image/svg+xml</dc:format><dc:type
         rdf:resource="http://purl.org/dc/dcmitype/StillImage" /><dc:title /></cc:Work></rdf:RDF></metadata><defs
   id="defs47" /><sodipodi:namedview
   pagecolor="#ffffff"
   bordercolor="#666666"
   borderopacity="1"
   objecttolerance="10"
   gridtolerance="10"
   guidetolerance="10"
   inkscape:pageopacity="0"
   inkscape:pageshadow="2"
   inkscape:window-width="3440"
   inkscape:window-height="1377"
   id="namedview45"
   showgrid="false"
   inkscape:zoom="1.7504367"
   inkscape:cx="264.89851"
   inkscape:cy="95.634995"
   inkscape:window-x="1912"
   inkscape:window-y="-8"
   inkscape:window-maximized="1"
   inkscape:current-layer="g16"
   inkscape:document-rotation="0" />
<style
   type="text/css"
   id="style2">
	.st0{clip-path:url(#SVGID_2_);fill:#4A4063;stroke:#000000;stroke-width:0.25;stroke-miterlimit:10;}
	.st1{fill:none;}
	.st2{fill:#E30B5D;}
	.st3{font-family:'EncodeSansExpanded-Thin';}
	.st4{font-size:48px;}
	.st5{fill:#4A4063;}
	.st6{fill:none;stroke:#000000;stroke-width:0.25;stroke-miterlimit:10;}
	.st7{fill:none;stroke:#1D1D1B;stroke-width:0.25;stroke-miterlimit:10;}
	.st8{fill:#FFFFFF;}
</style>
<g
   id="Logo_1_"
   inkscape:label="Logo"
   transform="translate(-32.7415,-76.570007)">
	<g
   id="Seats">
		<g
   id="g16">
			<defs
   id="defs5">
				<circle
   id="SVGID_1_"
   cx="270.07999"
   cy="169.13"
   r="92.559998" />
			</defs>
			<clipPath
   id="SVGID_2_">
				<use
   xlink:href="#SVGID_1_"
   style="overflow:visible"
   id="use7"
   x="0"
   y="0"
   width="100%"
   height="100%" />
			</clipPath>
			<circle
   id="_x36_"
   class="st0"
   cx="270.07999"
   cy="261.69"
   r="13.59"
   clip-path="url(#SVGID_2_)"
   inkscape:label="6"
   style="stroke:none" />
			<circle
   id="_x31_2"
   class="st0"
   cx="270.07999"
   cy="76.580002"
   r="13.59"
   clip-path="url(#SVGID_2_)"
   inkscape:label="12"
   style="stroke:none" />
			<circle
   id="_x34_"
   class="st0"
   cx="350.25"
   cy="215.42"
   r="13.59"
   clip-path="url(#SVGID_2_)"
   inkscape:label="4"
   style="stroke:none" />
			<circle
   id="_x32__1_"
   class="st0"
   cx="350.25"
   cy="122.85"
   r="13.59"
   clip-path="url(#SVGID_2_)"
   inkscape:label="2"
   style="stroke:none" />
			<circle
   id="_x38_"
   class="st0"
   cx="189.91"
   cy="215.42"
   r="13.59"
   clip-path="url(#SVGID_2_)"
   inkscape:label="8"
   style="stroke:none" />
			<circle
   id="_x31_0"
   class="st0"
   cx="189.91"
   cy="122.85"
   r="13.59"
   clip-path="url(#SVGID_2_)"
   inkscape:label="10"
   style="stroke:none" />
		</g>
	</g>
	<g
   id="Text">
		
		<text
   transform="translate(30.2935,187.3018)"
   class="st2 st3 st4"
   id="text21"
   style="font-style:normal;font-variant:normal;font-stretch:expanded;font-size:48px;font-family:'Encode Sans Expanded';-inkscape-font-specification:'Encode Sans Expanded,  weight=250 Expanded';font-variant-ligatures:normal;font-variant-caps:normal;font-variant-numeric:normal;font-variant-east-asian:normal"
   inkscape:label="space">SPACE</text>
		
		<text
   transform="translate(207.6395,187.3018)"
   class="st5 st3 st4"
   id="text25"
   style="font-style:normal;font-variant:normal;font-stretch:expanded;font-size:48px;font-family:'Encode Sans Expanded';-inkscape-font-specification:'Encode Sans Expanded,  weight=250 Expanded';font-variant-ligatures:normal;font-variant-caps:normal;font-variant-numeric:normal;font-variant-east-asian:normal"
   inkscape:label="bar">B A R</text>
		
		<text
   transform="translate(357.2304,187.3018)"
   class="st2 st3 st4"
   id="text29"
   style="font-style:normal;font-variant:normal;font-stretch:expanded;font-size:48px;font-family:'Encode Sans Expanded';-inkscape-font-specification:'Encode Sans Expanded,  weight=250 Expanded';font-variant-ligatures:normal;font-variant-caps:normal;font-variant-numeric:normal;font-variant-east-asian:normal"
   inkscape:label="keepers">KEEPERS</text>
	</g>
</g>
<g
   id="Center"
   style="display:none"
   transform="translate(-32.7415,-76.570007)">
	<line
   id="horizontal"
   class="st6"
   x1="128.35001"
   y1="169.13"
   x2="411.81"
   y2="169.13" />
	<line
   id="_x32_-8"
   class="st6"
   x1="147.33"
   y1="240"
   x2="392.82999"
   y2="98.269997" />
	<line
   id="vertical"
   class="st6"
   x1="270.07999"
   y1="310.87"
   x2="270.07999"
   y2="27.4" />
	<line
   id="_x34_-10"
   class="st6"
   x1="147.33"
   y1="98.260002"
   x2="392.82999"
   y2="240.00999" />
</g>
<g
   id="Inside_with_outliner"
   style="display:none"
   transform="translate(-32.7415,-76.570007)">
	<circle
   class="st7"
   cx="270.07999"
   cy="169.13"
   r="92.559998"
   id="circle38" />
	<path
   class="st8"
   d="m 362.64,170.04 c -0.07,7.37 -1,14.53 -2.71,21.39 -3.22,-1.37 -6.75,-2.15 -10.46,-2.19 -15.06,-0.14 -27.38,11.95 -27.52,27 -0.08,8.69 3.91,16.48 10.21,21.54 -10.18,9.21 -22.42,16.19 -35.93,20.16 -1.75,-13.25 -13.03,-23.54 -26.77,-23.67 -13.76,-0.13 -25.22,9.93 -27.23,23.15 -13.43,-4.23 -25.53,-11.44 -35.54,-20.86 6.4,-4.92 10.56,-12.63 10.64,-21.33 0.15,-15.05 -11.96,-27.38 -27.01,-27.52 -3.71,-0.04 -7.26,0.68 -10.49,1.98 -1.57,-6.89 -2.36,-14.07 -2.29,-21.44 0.07,-7.38 1,-14.54 2.7,-21.4 3.21,1.37 6.74,2.15 10.45,2.19 15.05,0.14 27.39,-11.95 27.54,-27 0.08,-8.71 -3.93,-16.5 -10.23,-21.54 10.19,-9.23 22.42,-16.21 35.93,-20.17 1.75,13.26 13.03,23.55 26.78,23.68 13.74,0.13 25.21,-9.95 27.21,-23.17 13.43,4.22 25.54,11.44 35.54,20.85 -6.4,4.94 -10.54,12.65 -10.63,21.34 -0.14,15.07 11.95,27.39 27,27.54 3.71,0.04 7.26,-0.68 10.5,-1.99 1.58,6.9 2.38,14.08 2.31,21.46 z"
   id="path40" />
</g>
</svg>
