<?xml version="1.0" encoding="UTF-8" standalone="no"?>
<svg
   xmlns:dc="http://purl.org/dc/elements/1.1/"
   xmlns:cc="http://creativecommons.org/ns#"
   xmlns:rdf="http://www.w3.org/1999/02/22-rdf-syntax-ns#"
   xmlns:svg="http://www.w3.org/2000/svg"
   xmlns="http://www.w3.org/2000/svg"
   xmlns:sodipodi="http://sodipodi.sourceforge.net/DTD/sodipodi-0.dtd"
   xmlns:inkscape="http://www.inkscape.org/namespaces/inkscape"
   version="1.1"
   x="0px"
   y="0px"
   viewBox="0 0 538.32846 185.12718"
   xml:space="preserve"
   id="svg972"
   sodipodi:docname="spacebarkeepers_logotype_color_rgb_baseline_inkspace.svg"
   inkscape:version="1.0.2-2 (e86c870879, 2021-01-15)"
   width="538.32849"
   height="185.12718"><metadata
   id="metadata978"><rdf:RDF><cc:Work
       rdf:about=""><dc:format>image/svg+xml</dc:format><dc:type
         rdf:resource="http://purl.org/dc/dcmitype/StillImage" /><dc:title /></cc:Work></rdf:RDF></metadata><defs
   id="defs976" /><sodipodi:namedview
   pagecolor="#ffffff"
   bordercolor="#666666"
   borderopacity="1"
   objecttolerance="10"
   gridtolerance="10"
   guidetolerance="10"
   inkscape:pageopacity="0"
   inkscape:pageshadow="2"
   inkscape:window-width="3440"
   inkscape:window-height="1377"
   id="namedview974"
   showgrid="false"
   inkscape:zoom="3.4464737"
   inkscape:cx="210.78522"
   inkscape:cy="95.628641"
   inkscape:window-x="1912"
   inkscape:window-y="-8"
   inkscape:window-maximized="1"
   inkscape:current-layer="svg972"
   inkscape:document-rotation="0" />
<style
   type="text/css"
   id="style931">
	.st0{fill:none;stroke:#000000;stroke-miterlimit:10;}
	.st1{fill:none;stroke:#000000;stroke-width:0.25;stroke-miterlimit:10;}
	.st2{fill:#E30B5D;}
	.st3{fill:#FFFFFF;}
	.st4{fill:#4A4063;}
	.st5{fill:none;}
	.st6{font-family:'EncodeSansExpanded-Thin';}
	.st7{font-size:48px;}
</style>

<g
   id="Inside_with_outliner"
   style="display:inline"
   transform="translate(-32.7415,-76.576359)">
	<circle
   class="st2"
   cx="270.07999"
   cy="169.13"
   r="92.559998"
   id="circle938"
   style="display:inline"
   inkscape:label="outliner" />
	<path
   class="st3"
   d="m 362.64,170.04 c -0.07,7.37 -1,14.53 -2.71,21.39 -3.22,-1.37 -6.75,-2.15 -10.46,-2.19 -15.06,-0.14 -27.38,11.95 -27.52,27 -0.08,8.69 3.91,16.48 10.21,21.54 -10.18,9.21 -22.42,16.19 -35.93,20.16 -1.75,-13.25 -13.03,-23.54 -26.77,-23.67 -13.76,-0.13 -25.22,9.93 -27.23,23.15 -13.43,-4.23 -25.53,-11.44 -35.54,-20.86 6.4,-4.92 10.56,-12.63 10.64,-21.33 0.15,-15.05 -11.96,-27.38 -27.01,-27.52 -3.71,-0.04 -7.26,0.68 -10.49,1.98 -1.57,-6.89 -2.36,-14.07 -2.29,-21.44 0.07,-7.38 1,-14.54 2.7,-21.4 3.21,1.37 6.74,2.15 10.45,2.19 15.05,0.14 27.39,-11.95 27.54,-27 0.08,-8.71 -3.93,-16.5 -10.23,-21.54 10.19,-9.23 22.42,-16.21 35.93,-20.17 1.75,13.26 13.03,23.55 26.78,23.68 13.74,0.13 25.21,-9.95 27.21,-23.17 13.43,4.22 25.54,11.44 35.54,20.85 -6.4,4.94 -10.54,12.65 -10.63,21.34 -0.14,15.07 11.95,27.39 27,27.54 3.71,0.04 7.26,-0.68 10.5,-1.99 1.58,6.9 2.38,14.08 2.31,21.46 z"
   id="path940"
   style="display:inline"
   inkscape:label="inside" />
</g><g
   id="Center"
   style="display:inline"
   transform="translate(-32.7415,-76.576359)">
	<line
   class="st0"
   x1="360.23999"
   y1="169.14"
   x2="187.17"
   y2="169.14"
   id="line933"
   inkscape:label="horizontal" />
	<line
   class="st1"
   x1="270.95001"
   y1="83.379997"
   x2="269.20001"
   y2="254.89999"
   id="line935"
   style="display:inline"
   inkscape:label="vertical" />
</g>
<g
   id="Logo"
   transform="translate(-32.7415,-76.576359)">
	<g
   id="g957"
   inkscape:label="logo">
		<path
   class="st4"
   d="M 284.37,77.69 C 280,77 275.54,76.63 270.97,76.58 c -4.56,-0.04 -9.04,0.25 -13.43,0.85 0.36,7.02 6.15,12.67 13.3,12.74 7.13,0.07 13.03,-5.46 13.53,-12.48 z"
   id="path953"
   inkscape:label="12" /><path
   class="st4"
   d="m 355.56,204.68 c -1.86,-1.01 -3.97,-1.58 -6.23,-1.61 -7.4,-0.07 -13.49,5.9 -13.56,13.3 -0.04,4.7 2.35,8.87 6,11.32 5.64,-6.9 10.31,-14.65 13.79,-23.01 z"
   id="path951"
   inkscape:label="4" /><path
   class="st4"
   d="m 282.61,260.84 c -0.36,-7.02 -6.15,-12.67 -13.28,-12.73 -7.15,-0.07 -13.05,5.46 -13.53,12.49 4.37,0.69 8.85,1.05 13.4,1.1 4.55,0.04 9.02,-0.26 13.41,-0.86 z"
   id="path949"
   inkscape:label="6" /><path
   class="st4"
   d="m 203.48,215.11 c 0.07,-7.41 -5.9,-13.49 -13.3,-13.56 -2.24,-0.02 -4.37,0.51 -6.25,1.49 3.31,8.43 7.83,16.25 13.35,23.26 3.7,-2.38 6.16,-6.49 6.2,-11.19 z"
   id="path947"
   inkscape:label="8" /><path
   class="st4"
   d="m 356.23,135.26 c -3.3,-8.43 -7.83,-16.25 -13.36,-23.27 -3.69,2.36 -6.15,6.48 -6.2,11.18 -0.07,7.42 5.9,13.5 13.3,13.57 2.26,0.02 4.39,-0.51 6.26,-1.48 z"
   id="path945"
   inkscape:label="2" /><path
   class="st4"
   d="m 204.38,121.91 c 0.04,-4.7 -2.34,-8.87 -5.99,-11.31 -5.66,6.91 -10.33,14.65 -13.79,23.01 1.86,1.01 3.98,1.58 6.22,1.61 7.4,0.07 13.48,-5.9 13.56,-13.31 z"
   id="path943"
   inkscape:label="10" />
	</g>
	
	<text
   transform="translate(30.2935,187.5633)"
   class="st2 st6 st7"
   id="text961"
   style="font-style:normal;font-variant:normal;font-stretch:expanded;font-size:48px;font-family:'Encode Sans Expanded';-inkscape-font-specification:'Encode Sans Expanded, weight=250 Expanded';font-variant-ligatures:normal;font-variant-caps:normal;font-variant-numeric:normal;font-variant-east-asian:normal;fill:#e30b5d"
   inkscape:label="space">SPACE</text>
	
	<text
   transform="translate(207.6395,187.5633)"
   class="st4 st6 st7"
   id="text965"
   style="font-style:normal;font-variant:normal;font-stretch:expanded;font-size:48px;font-family:'Encode Sans Expanded';-inkscape-font-specification:'Encode Sans Expanded, weight=250 Expanded';font-variant-ligatures:normal;font-variant-caps:normal;font-variant-numeric:normal;font-variant-east-asian:normal;fill:#4a4063"
   inkscape:label="bar">B A R</text>
	
	<text
   transform="translate(357.2304,187.5633)"
   class="st2 st6 st7"
   id="text969"
   style="font-style:normal;font-variant:normal;font-stretch:expanded;font-size:48px;font-family:'Encode Sans Expanded';-inkscape-font-specification:'Encode Sans Expanded, weight=250 Expanded';font-variant-ligatures:normal;font-variant-caps:normal;font-variant-numeric:normal;font-variant-east-asian:normal;fill:#e30b5d"
   inkscape:label="keepers">KEEPERS</text>
</g>
</svg>
